<?xml version="1.0" standalone="no"?>
<!DOCTYPE svg PUBLIC "-//W3C//DTD SVG 20010904//EN"
 "http://www.w3.org/TR/2001/REC-SVG-20010904/DTD/svg10.dtd">
<svg version="1.0" xmlns="http://www.w3.org/2000/svg"
 width="90pt" height="92pt" viewBox="0 0 900.000000 924.000000"
 preserveAspectRatio="xMidYMid meet">
<metadata>
Created by potrace 1.10, written by Peter Selinger 2001-2011
</metadata>
<g transform="translate(0.000000,924.000000) scale(0.100000,-0.100000)"
fill="#66cdaa" stroke="none">
<path d="M5945 7146 c-5 -2 -29 -9 -52 -16 -28 -9 -45 -20 -49 -34 -3 -12 -25
-40 -47 -63 l-41 -43 -4 -227 -4 -228 54 -58 c50 -54 79 -76 118 -92 8 -4 23
-11 32 -16 10 -5 35 -9 56 -9 20 0 48 -7 61 -16 13 -9 42 -21 64 -26 50 -11
107 -45 107 -63 0 -7 12 -23 28 -35 38 -30 51 -58 52 -107 0 -23 5 -54 10 -69
7 -18 10 -489 9 -1443 -2 -1788 0 -1634 -31 -1701 -44 -97 -155 -189 -229
-190 -14 0 -29 -4 -35 -9 -5 -4 -31 -14 -59 -20 -27 -7 -68 -21 -90 -31 -22
-10 -52 -24 -68 -29 -15 -6 -30 -19 -33 -28 -4 -10 -15 -36 -25 -58 -15 -34
-17 -62 -15 -195 5 -211 14 -292 38 -308 10 -7 18 -18 18 -24 0 -5 9 -20 20
-32 10 -11 27 -31 37 -44 16 -21 28 -23 118 -26 55 -2 151 0 213 5 90 6 118
12 142 29 16 12 34 18 40 15 5 -3 20 1 32 9 12 9 30 16 40 16 9 0 50 16 91 35
41 19 79 35 85 35 6 0 32 18 58 41 26 23 66 50 90 61 27 14 47 33 58 54 9 20
23 34 34 34 22 0 60 40 94 100 15 25 38 56 52 69 14 14 26 32 26 42 0 10 7 22
15 27 9 4 18 21 21 36 2 16 18 54 33 85 16 31 36 80 45 110 9 29 20 59 25 65
5 6 12 63 14 126 3 63 7 117 8 120 6 12 10 2827 4 2980 -4 133 -15 242 -26
261 -5 10 -9 27 -9 39 0 11 -7 32 -16 45 -9 13 -13 28 -10 34 3 5 -5 29 -19
53 -14 23 -25 52 -25 64 0 11 -11 31 -25 44 -14 13 -25 28 -25 33 0 6 -16 30
-36 54 -20 24 -34 49 -31 56 2 7 -15 26 -39 42 -24 17 -47 39 -50 50 -7 24
-163 175 -181 175 -6 0 -19 7 -28 16 -8 9 -40 22 -70 30 -30 8 -81 33 -112 55
-42 29 -64 38 -81 34 -14 -3 -45 5 -85 24 -58 28 -71 30 -222 35 -88 3 -164 4
-170 2z m265 -100 c47 -7 95 -18 107 -24 12 -7 31 -12 42 -12 37 0 229 -93
326 -158 74 -49 197 -178 258 -269 48 -72 97 -172 117 -238 6 -22 16 -53 22
-70 6 -16 14 -61 19 -98 6 -39 8 -766 7 -1710 -3 -1491 -4 -1646 -19 -1682 -9
-22 -24 -65 -34 -95 -32 -99 -105 -225 -186 -320 -155 -181 -347 -295 -609
-360 -36 -9 -195 -26 -264 -29 -66 -2 -112 16 -135 53 -20 31 -21 48 -21 249
0 200 1 218 21 251 16 28 31 38 74 50 29 9 80 16 114 16 158 0 319 137 367
313 12 44 15 294 14 1615 0 1025 -3 1570 -10 1582 -5 10 -10 28 -10 40 0 19
-58 126 -93 171 -7 9 -46 38 -87 65 -77 49 -111 60 -235 70 -76 7 -124 29
-143 66 -15 30 -15 23 -13 260 l1 206 26 31 c14 17 40 35 57 41 37 11 163 5
287 -14z"/>
<path d="M2092 7068 c-23 -11 -61 -41 -83 -67 -22 -25 -50 -48 -62 -51 -12 -3
-24 -14 -26 -25 -2 -11 -10 -30 -19 -44 -21 -32 -20 81 -22 -2482 -1 -1544 2
-2189 10 -2217 6 -23 22 -50 35 -60 14 -11 25 -26 26 -33 1 -23 60 -65 134
-94 69 -27 164 -39 300 -38 28 0 106 1 175 1 385 0 423 1 442 20 7 7 22 12 35
12 13 0 31 9 40 20 10 11 26 20 36 20 15 0 17 5 12 30 -4 19 -3 30 4 30 6 0
11 -4 11 -10 0 -5 5 -10 10 -10 25 0 33 61 32 235 -2 212 -10 290 -32 290 -9
0 -34 21 -57 45 -39 43 -46 46 -120 58 -43 6 -102 12 -130 12 -33 0 -55 5 -60
14 -4 7 -18 18 -29 24 l-21 11 0 1706 c0 937 -2 1707 -5 1710 -2 3 3 40 12 82
l16 78 65 6 c35 4 102 8 149 9 105 2 121 8 135 51 6 19 21 38 33 44 12 5 25
16 28 25 4 8 10 107 15 220 7 171 6 206 -6 212 -23 14 -46 70 -40 99 8 34 -24
59 -75 59 -19 1 -46 7 -60 15 -21 12 -99 14 -445 14 -404 0 -422 -1 -463 -21z
m938 -78 c22 -11 44 -29 50 -39 6 -12 10 -107 10 -239 0 -213 -1 -220 -22
-244 -13 -14 -32 -28 -43 -33 -11 -4 -91 -7 -178 -6 -130 2 -163 -1 -183 -14
l-24 -16 0 -1874 c0 -1685 2 -1875 16 -1889 18 -19 11 -18 195 -16 117 1 153
-2 177 -14 59 -31 62 -41 62 -257 0 -238 -2 -253 -46 -279 -32 -20 -44 -21
-481 -18 l-448 3 -46 33 c-27 20 -58 54 -73 82 l-26 48 0 2303 0 2302 21 44
c20 41 80 99 124 119 11 5 205 11 430 14 226 3 418 7 428 8 10 1 35 -7 57 -18z"/>
</g>
</svg>
